<svg width="1048" height="703" viewBox="0 0 1048 703" fill="none" xmlns="http://www.w3.org/2000/svg">
<path d="M652.54 311.564C688.159 311.564 717.034 282.689 717.034 247.07C717.034 211.45 688.159 182.575 652.54 182.575C616.921 182.575 588.045 211.45 588.045 247.07C588.045 282.689 616.921 311.564 652.54 311.564Z" fill="#FF6584"/>
<path d="M829.451 295.156C829.594 295.13 829.7 295.03 829.866 295.056C829.793 294.777 829.699 294.504 829.583 294.239C829.378 294.519 829.169 294.805 828.985 295.055L829.451 295.156Z" fill="white"/>
<path d="M396.877 399.716C397.254 413.787 399.611 427.734 403.879 441.148C403.976 441.459 404.078 441.766 404.181 442.077H430.309C430.281 441.798 430.253 441.487 430.225 441.148C428.483 421.119 418.439 299.22 430.449 278.374C429.399 280.065 394.852 336.076 396.877 399.716Z" fill="#E6E6E6"/>
<path d="M398.838 441.147C399.056 441.458 399.284 441.769 399.516 442.076H419.117C418.969 441.811 418.797 441.5 418.597 441.147C415.359 435.302 405.774 417.829 396.877 399.714C387.316 380.248 378.545 360.043 379.283 352.73C379.056 354.38 372.44 404.658 398.838 441.147Z" fill="#E6E6E6"/>
<path d="M602.52 444.497C602.192 456.765 600.137 468.925 596.417 480.619C596.331 480.89 596.242 481.157 596.153 481.429H573.374C573.398 481.186 573.423 480.914 573.447 480.619C574.966 463.157 583.723 356.884 573.252 338.71C574.168 340.184 604.286 389.016 602.52 444.497Z" fill="#E6E6E6"/>
<path d="M600.811 480.619C600.621 480.89 600.422 481.161 600.22 481.429H583.131C583.261 481.198 583.411 480.927 583.585 480.619C586.408 475.523 594.764 460.29 602.52 444.498C610.856 427.526 618.503 409.911 617.859 403.536C618.058 404.974 623.825 448.807 600.811 480.619Z" fill="#E6E6E6"/>
<path d="M342.067 83.3492L352.69 74.8529C344.437 73.9424 341.046 78.4431 339.659 82.0055C333.211 79.3284 326.193 82.8369 326.193 82.8369L347.447 90.553C346.375 87.689 344.509 85.1901 342.067 83.3492V83.3492Z" fill="#3F3D56"/>
<path d="M662.021 39.6153L672.644 31.119C664.391 30.2085 661 34.7092 659.613 38.2716C653.165 35.5945 646.147 39.103 646.147 39.103L667.401 46.8191C666.329 43.9551 664.463 41.4562 662.021 39.6153V39.6153Z" fill="#3F3D56"/>
<path d="M818.317 375.604C818.317 382.644 818.072 389.626 817.582 396.551C813.798 451.184 794.854 503.68 762.88 548.14C758.701 553.972 754.314 559.64 749.717 565.145C737.808 579.429 724.584 592.564 710.221 604.377L647.262 567.434L609.619 479.576C609.619 479.576 665.784 365.857 818.218 367.919C818.281 370.472 818.314 373.033 818.317 375.604Z" fill="#3F3D56"/>
<path d="M817.582 396.551C814.685 437.377 803.358 477.159 784.315 513.387C765.273 549.616 738.927 581.504 706.942 607.039L648.452 572.721L615.069 494.801C615.069 494.801 669.163 385.279 817.582 396.551Z" fill="#6C63FF"/>
<path d="M762.88 548.14C758.701 553.971 754.314 559.64 749.717 565.144C718.919 602.149 679.565 631.089 635.063 649.459C626.052 653.175 616.829 656.451 607.394 659.288C539.267 677.405 467.091 672.823 401.802 646.235C337.232 617.415 285.053 566.518 254.637 502.685C250.549 494.092 246.873 485.28 243.609 476.251C300.537 434.548 412.712 374.831 534.969 432.858C568.788 448.909 598.985 463.54 625.561 476.751C692.999 510.179 737.881 534.278 762.88 548.14Z" fill="#3F3D56"/>
<path d="M749.717 565.145C717.88 603.301 676.958 632.837 630.717 651.037C584.476 669.237 534.4 675.516 485.097 669.296C435.794 663.076 388.847 644.556 348.575 615.442C308.303 586.328 276 547.553 254.637 502.685C302.181 465.088 411.839 397.523 532.18 454.632C563.129 469.321 590.758 482.71 615.069 494.8C685.94 529.927 729.597 553.799 749.717 565.145Z" fill="#6C63FF"/>
<path d="M665.802 634.644C655.846 640.164 645.583 645.11 635.063 649.46C599.262 664.213 560.91 671.781 522.188 671.733C476.37 671.715 431.179 661.075 390.166 640.648C349.152 620.222 313.433 590.565 285.812 554.008C356.538 546.55 552.037 536.495 665.802 634.644Z" fill="#3F3D56"/>
<path d="M635.063 649.46C579.55 672.286 518.415 677.724 459.745 665.053C401.074 652.382 347.632 622.2 306.487 578.498C332.212 574.719 534.179 548.767 635.063 649.46Z" fill="#6C63FF"/>
<path d="M768.648 211.388V211.398C557.197 55.0578 314.935 165.098 313.063 165.943V165.934C340.523 138.478 373.129 116.708 409.014 101.872C444.899 87.0364 483.358 79.4253 522.189 79.4748C624.989 79.4748 715.554 131.861 768.648 211.388Z" fill="#E6E6E6"/>
<path d="M330.023 381.344C365.793 374.895 384.124 310.5 370.964 237.513C357.805 164.527 318.14 110.588 282.369 117.037C246.598 123.487 228.268 187.882 241.428 260.868C254.587 333.855 294.252 387.794 330.023 381.344Z" fill="#3F3D56"/>
<path d="M339.216 466.584C337.095 306.269 283.457 155.824 282.915 154.324L278.023 156.089C278.562 157.581 331.907 307.238 334.016 466.654L339.216 466.584Z" fill="#6C63FF"/>
<path d="M244.05 231.055L242.449 236.004L306.666 256.771L308.266 251.823L244.05 231.055Z" fill="#6C63FF"/>
<path d="M364.846 225.481L311.937 267.384L315.166 271.461L368.076 229.558L364.846 225.481Z" fill="#6C63FF"/>
<path d="M502.022 358.233C541.353 358.233 573.237 293.176 573.237 212.924C573.237 132.673 541.353 67.6162 502.022 67.6162C462.69 67.6162 430.806 132.673 430.806 212.924C430.806 293.176 462.69 358.233 502.022 358.233Z" fill="#3F3D56"/>
<path d="M495.445 450.771C523.967 279.641 495.732 109.13 495.444 107.429L489.895 108.369C490.183 110.061 518.256 279.677 489.894 449.847L495.445 450.771Z" fill="#6C63FF"/>
<path d="M439.323 181.679L436.668 186.642L501.066 221.087L503.721 216.124L439.323 181.679Z" fill="#6C63FF"/>
<path d="M569.032 198.933L504.642 233.398L507.298 238.361L571.688 203.896L569.032 198.933Z" fill="#6C63FF"/>
<path d="M811.359 311.492C785.23 296.822 757.931 284.341 729.742 274.176C573.875 217.775 419.315 239.512 358.818 320.23C405.899 221.345 573.893 190.251 743.422 251.594C763.153 258.727 782.463 266.976 801.258 276.301C805.353 287.81 808.727 299.563 811.359 311.492V311.492Z" fill="#E6E6E6"/>
<path d="M600.85 152.365L611.473 143.869C603.221 142.959 599.83 147.459 598.442 151.022C591.995 148.345 584.977 151.853 584.977 151.853L606.231 159.569C605.159 156.705 603.292 154.206 600.85 152.365Z" fill="#3F3D56"/>
</svg>
